<svg width="960" height="420" viewBox="0 0 960 420" fill="none" xmlns="http://www.w3.org/2000/svg">
  <rect width="960" height="420" rx="18" fill="#0d1117"/>
  <rect x="48" y="48" width="864" height="324" rx="14" fill="#161b22" stroke="#30363d" stroke-width="2"/>
  <circle cx="86" cy="84" r="10" fill="#ff5f56"/>
  <circle cx="118" cy="84" r="10" fill="#ffbd2e"/>
  <circle cx="150" cy="84" r="10" fill="#27c93f"/>
  <text x="72" y="145" fill="#f0f6fc" font-family="Arial, sans-serif" font-size="30" font-weight="700">GitHub repo: escape-the-humg</text>
  <rect x="72" y="182" width="520" height="48" rx="8" fill="#0d1117" stroke="#30363d"/>
  <text x="92" y="214" fill="#8b949e" font-family="Arial, sans-serif" font-size="20">github.com/phongnk123nk/escape-the-humg</text>
  <rect x="646" y="175" width="190" height="62" rx="10" fill="#238636"/>
  <text x="704" y="214" fill="#ffffff" font-family="Arial, sans-serif" font-size="24" font-weight="700">Code</text>
  <path d="M800 200 L816 200 L808 212 Z" fill="#ffffff"/>
  <rect x="646" y="252" width="190" height="58" rx="10" fill="#21262d" stroke="#30363d"/>
  <text x="672" y="288" fill="#f0f6fc" font-family="Arial, sans-serif" font-size="20">Download ZIP</text>
  <path d="M734 238 L734 252" stroke="#58a6ff" stroke-width="4"/>
  <path d="M734 252 L720 238 M734 252 L748 238" stroke="#58a6ff" stroke-width="4" stroke-linecap="round"/>
  <text x="72" y="318" fill="#c9d1d9" font-family="Arial, sans-serif" font-size="22">Bấm Code → Download ZIP → Giải nén trước khi mở bằng Unity.</text>
</svg>
